<?xml version="1.0" encoding="UTF-8"?>
<svg version="1.1" xmlns="http://www.w3.org/2000/svg" width="216" height="209">
<path d="M0 0 C2.75246248 1.99127264 4.23664016 4.28308177 5.765625 7.27734375 C5.765625 8.26734375 5.765625 9.25734375 5.765625 10.27734375 C7.08167725 10.25377808 7.08167725 10.25377808 8.42431641 10.22973633 C11.70074452 10.17839999 14.97674098 10.14089378 18.25341797 10.11254883 C19.66754937 10.0975255 21.08163468 10.0771007 22.49560547 10.05102539 C24.53624897 10.01435421 26.57627292 9.99755339 28.6171875 9.984375 C29.84260254 9.96866455 31.06801758 9.9529541 32.33056641 9.93676758 C37.31809396 10.43126658 40.57943163 12.02525075 44.015625 15.65234375 C47.11780294 20.30561066 48.13359721 24.7415109 49.0078125 30.19140625 C50.0205457 32.97903268 51.25517395 33.73447222 53.765625 35.27734375 C56.19355242 35.73412613 56.19355242 35.73412613 58.83789062 35.68139648 C60.34965881 35.70042274 60.34965881 35.70042274 61.89196777 35.71983337 C63.51552185 35.71542992 63.51552185 35.71542992 65.171875 35.7109375 C66.28872681 35.71617935 67.40557861 35.7214212 68.55627441 35.7268219 C70.91657683 35.73324271 73.27691124 35.73190437 75.63720703 35.72338867 C79.25220558 35.71487535 82.86562619 35.74364694 86.48046875 35.77539062 C88.77343703 35.7770026 91.0664081 35.77642518 93.359375 35.7734375 C94.44174438 35.78467148 95.52411377 35.79590546 96.63928223 35.80747986 C97.64712769 35.79809891 98.65497314 35.78871796 99.69335938 35.77905273 C100.57842163 35.77888657 101.46348389 35.7787204 102.37536621 35.77854919 C105.55398908 35.1120343 106.74756914 33.76816629 108.765625 31.27734375 C109.66628794 28.48949047 109.66628794 28.48949047 110.140625 25.46484375 C111.39852663 19.86581422 113.14629255 15.83231389 117.765625 12.27734375 C121.88157438 10.24466157 125.25410453 10.04320315 129.81640625 10.08203125 C130.47521286 10.08486115 131.13401947 10.08769104 131.81278992 10.09060669 C133.90142562 10.10173451 135.98962056 10.12682427 138.078125 10.15234375 C139.50064482 10.16238316 140.9231714 10.17150733 142.34570312 10.1796875 C145.81915181 10.20164928 149.29234533 10.23612729 152.765625 10.27734375 C152.88550781 9.51808594 153.00539062 8.75882813 153.12890625 7.9765625 C154.04896602 4.07618643 155.95725639 2.08571236 158.765625 -0.72265625 C163.21863916 -2.89968539 167.86842502 -3.48099132 172.765625 -2.72265625 C177.21678688 -1.13183607 180.11332466 0.29889325 182.765625 4.27734375 C183.24062343 7.38621792 183.18189936 10.51094866 183.203125 13.65234375 C183.23599609 14.503125 183.26886719 15.35390625 183.30273438 16.23046875 C183.34063429 20.65442287 183.24930794 22.64515439 180.48828125 26.25390625 C174.6423613 30.59850673 170.00020658 31.11735322 162.765625 30.27734375 C157.87482623 27.96532978 155.37001345 24.98527672 152.765625 20.27734375 C152.765625 19.28734375 152.765625 18.29734375 152.765625 17.27734375 C148.36904322 17.35832282 143.9738379 17.47116174 139.578125 17.58984375 C138.33224609 17.61240234 137.08636719 17.63496094 135.80273438 17.65820312 C133.9996582 17.71137695 133.9996582 17.71137695 132.16015625 17.765625 C130.50270386 17.80490112 130.50270386 17.80490112 128.81176758 17.8449707 C125.43015494 18.32496076 123.51086418 19.27985543 120.765625 21.27734375 C118.85967848 24.12442535 118.39713701 26.86049381 117.890625 30.21484375 C116.8315811 35.79740074 114.96555171 38.73739505 110.265625 42.02734375 C106.40777503 43.95626873 103.12432089 44.40433405 98.83276367 44.43847656 C97.85462204 44.44808411 96.87648041 44.45769165 95.86869812 44.46759033 C94.81761368 44.47184021 93.76652924 44.47609009 92.68359375 44.48046875 C91.59605301 44.48616882 90.50851227 44.4918689 89.38801575 44.4977417 C87.0873817 44.50718383 84.78673418 44.51372256 82.48608398 44.51757812 C78.97680923 44.52727828 75.46812159 44.55830759 71.95898438 44.58984375 C69.72135764 44.59637471 67.48372672 44.60162482 65.24609375 44.60546875 C64.201082 44.61781555 63.15607025 44.63016235 62.07939148 44.6428833 C54.71663806 44.62050947 49.69362718 43.87261841 44.015625 38.83984375 C41.11192171 35.08489193 40.48182264 30.66307714 39.63671875 26.08203125 C38.62428855 22.82227839 37.3637308 21.44160078 34.765625 19.27734375 C32.02883775 17.90895012 29.72298076 18.06099557 26.6640625 17.9609375 C25.45234375 17.91904297 24.240625 17.87714844 22.9921875 17.83398438 C21.72117188 17.79466797 20.45015625 17.75535156 19.140625 17.71484375 C17.861875 17.67166016 16.583125 17.62847656 15.265625 17.58398438 C12.09907152 17.47764489 8.93243747 17.37561542 5.765625 17.27734375 C5.48460937 18.210625 5.20359375 19.14390625 4.9140625 20.10546875 C3.35170009 24.42056493 0.84580969 27.00611977 -3.0625 29.39453125 C-7.28920919 31.11258211 -11.76453721 30.80282541 -16.234375 30.27734375 C-21.06270508 27.90707262 -24.94596836 24.49836035 -26.984375 19.40234375 C-27.78661598 12.5832954 -26.95896656 8.00748461 -23.234375 2.27734375 C-17.11841463 -4.63564337 -7.53864003 -4.16999576 0 0 Z " fill="#933D8E" transform="translate(33.234375,43.72265625)"/>
<path d="M0 0 C0.99493469 -0.01283524 1.98986938 -0.02567047 3.01495361 -0.03889465 C4.08477478 -0.04628159 5.15459595 -0.05366852 6.25683594 -0.0612793 C7.36420105 -0.06935104 8.47156616 -0.07742279 9.61248779 -0.08573914 C11.95599814 -0.09956415 14.29952849 -0.11029337 16.64306641 -0.11816406 C20.21393298 -0.13536664 23.78387111 -0.17926737 27.35449219 -0.22338867 C29.63443332 -0.23351707 31.91438229 -0.24203271 34.19433594 -0.2487793 C35.25606018 -0.26628738 36.31778442 -0.28379547 37.41168213 -0.30183411 C45.06785671 -0.27960315 50.46402451 1.12646234 56.30371094 6.17700195 C58.49792808 10.07783244 59.29592894 13.96980552 60.18261719 18.3371582 C61.02278273 21.28788453 61.89455073 22.95731034 63.99121094 25.17700195 C67.22986728 26.25655407 69.78276931 26.38141936 73.19042969 26.4934082 C75.00317383 26.55625 75.00317383 26.55625 76.85253906 26.62036133 C78.11517578 26.65967773 79.3778125 26.69899414 80.67871094 26.73950195 C82.59006836 26.80427734 82.59006836 26.80427734 84.54003906 26.87036133 C87.69031945 26.97655055 90.84067933 27.07859728 93.99121094 27.17700195 C94.19157959 25.74964722 94.19157959 25.74964722 94.39599609 24.29345703 C95.05813076 20.82661986 95.65379536 19.98751077 98.36621094 17.86450195 C99.275 17.12780273 99.275 17.12780273 100.20214844 16.3762207 C104.64848497 13.39581609 109.84977975 13.47934462 114.99121094 14.17700195 C118.63147478 15.7659119 122.17247227 17.53952462 123.99121094 21.17700195 C124.35931897 24.25150429 124.40797801 27.33351163 124.49121094 30.42700195 C124.54535156 31.27391602 124.59949219 32.12083008 124.65527344 32.9934082 C124.78935462 39.15156538 124.78935462 39.15156538 122.50292969 42.08911133 C117.67342737 46.34415705 113.63546482 47.49113087 107.26855469 47.38793945 C102.42607145 46.93940756 99.29181031 44.74330573 96.11621094 41.23950195 C93.99121094 38.17700195 93.99121094 38.17700195 93.99121094 34.17700195 C92.62971924 34.20842285 92.62971924 34.20842285 91.24072266 34.24047852 C87.85243452 34.30891128 84.46488743 34.35892491 81.07617188 34.39672852 C79.61348842 34.41676528 78.15088428 34.44400299 76.68847656 34.47875977 C74.57825084 34.5276342 72.46908958 34.55004855 70.35839844 34.56762695 C69.09108887 34.58857422 67.8237793 34.60952148 66.51806641 34.63110352 C61.44462385 33.97787057 58.50086026 31.55725276 54.80371094 28.17700195 C52.45367447 24.28728642 51.74810876 20.45476496 50.89746094 16.0168457 C49.82742598 12.66376201 48.69520811 11.39805575 45.99121094 9.17700195 C43.57862817 8.57116898 43.57862817 8.57116898 40.93481445 8.64355469 C39.4278878 8.61980019 39.4278878 8.61980019 37.89051819 8.5955658 C36.81128586 8.60052567 35.73205353 8.60548553 34.62011719 8.6105957 C33.50563705 8.60439713 32.39115692 8.59819855 31.24290466 8.59181213 C28.88679885 8.58471056 26.53064288 8.58789378 24.17456055 8.60058594 C20.57018573 8.61443864 16.96841281 8.58039768 13.36425781 8.54223633 C11.07454364 8.54128502 8.78482621 8.54314457 6.49511719 8.5480957 C4.87930504 8.52820839 4.87930504 8.52820839 3.23085022 8.50791931 C-2.90924403 8.56016028 -2.90924403 8.56016028 -8.16503906 11.53271484 C-10.21719249 14.47589198 -10.92999881 16.66111695 -11.57128906 20.17700195 C-12.59038179 24.79122738 -13.35797055 27.94341984 -17.00878906 31.17700195 C-21.57304905 33.89658507 -24.87020266 34.53775306 -30.15722656 34.4699707 C-31.14331406 34.46360344 -31.14331406 34.46360344 -32.14932251 34.45710754 C-34.22791297 34.44045173 -36.3054968 34.40282815 -38.38378906 34.36450195 C-39.80174371 34.34943801 -41.21971371 34.3357526 -42.63769531 34.32348633 C-46.09504796 34.29059233 -49.55182009 34.2389036 -53.00878906 34.17700195 C-53.305354 35.12857178 -53.60191895 36.0801416 -53.9074707 37.06054688 C-55.04017993 40.26583024 -55.84607752 41.41492457 -58.44628906 43.48950195 C-59.34154297 44.22620117 -59.34154297 44.22620117 -60.25488281 44.9777832 C-64.15957437 47.64758344 -68.45021911 47.75393327 -73.00878906 47.17700195 C-77.40385937 45.78615692 -80.34721737 43.90642715 -83.44628906 40.48950195 C-86.09109663 34.8825099 -86.70394985 30.37224656 -84.82128906 24.42700195 C-82.62721007 20.49279135 -80.77439643 17.26752415 -76.88378906 14.86450195 C-71.31236669 13.5322053 -66.05543441 13.456886 -60.63378906 15.36450195 C-56.89304362 17.94739762 -54.42919516 20.32721513 -53.40332031 24.84106445 C-53.20802734 25.99735352 -53.20802734 25.99735352 -53.00878906 27.17700195 C-48.5916085 27.06715294 -44.17528196 26.93651443 -39.75878906 26.80200195 C-37.87740234 26.7555957 -37.87740234 26.7555957 -35.95800781 26.70825195 C-34.75273438 26.66958008 -33.54746094 26.6309082 -32.30566406 26.59106445 C-30.64035645 26.54393311 -30.64035645 26.54393311 -28.94140625 26.49584961 C-26.06302098 26.1828983 -24.39575081 25.77840692 -22.00878906 24.17700195 C-19.80611119 20.87298514 -19.52388755 18.80365474 -18.88378906 14.92700195 C-17.58881682 8.97677051 -15.8122801 6.0606443 -11.04394531 2.34887695 C-7.45427125 0.28188613 -4.09205303 0.04614334 0 0 Z " fill="#943D8E" transform="translate(92.0087890625,112.822998046875)"/>
<path d="M0 0 C2.64314328 2.26555138 4.14096809 4.11704374 5.625 7.25 C5.625 7.91 5.625 8.57 5.625 9.25 C6.181875 9.20359375 6.73875 9.1571875 7.3125 9.109375 C13.22326939 8.82981158 17.83821319 9.61126368 22.625 13.25 C26.98055551 17.76135298 29.08328676 22.14247471 31.1875 28 C31.78482528 29.60038399 32.38247937 31.20064529 32.98046875 32.80078125 C33.26196777 33.56600098 33.5434668 34.3312207 33.83349609 35.11962891 C34.84016623 37.82913032 35.91224532 40.50964574 37 43.1875 C37.9523108 45.53515314 38.8228606 47.8435818 39.625 50.25 C45.22677043 53.1018104 51.04103563 53.55877565 57.203125 53.0625 C60.85827249 51.83625697 63.28139933 50.26550454 65.625 47.25 C67.69349882 42.89223277 69.21793575 38.38211119 70.75 33.8125 C77.41885403 14.35307298 77.41885403 14.35307298 85.625 10.25 C87.6603566 9.91714007 89.70330228 9.62896979 91.75 9.375 C96.6066009 8.81238836 96.6066009 8.81238836 100 5.375 C100.53625 4.34375 101.0725 3.3125 101.625 2.25 C105.44430172 -1.37833663 108.50779006 -2.06000458 113.625 -2.25 C120.3162538 -2.00156236 123.42634327 -0.0643755 128 4.75 C130.39803575 9.91500009 130.37881535 14.6502288 129.625 20.25 C127.35712562 25.1346525 124.5096525 27.98212562 119.625 30.25 C114.0252288 31.00381535 109.29000009 31.02303575 104.125 28.625 C101.37306736 26.01066399 99.43403586 23.5897585 97.625 20.25 C97.625 18.93 97.625 17.61 97.625 16.25 C96.03735914 16.64994006 94.45497089 17.07075935 92.875 17.5 C91.99328125 17.73203125 91.1115625 17.9640625 90.203125 18.203125 C86.05847605 19.88610366 84.10088901 22.18029259 82.28808594 26.25512695 C81.89911133 27.40456787 81.51013672 28.55400879 81.109375 29.73828125 C80.65828122 31.01523177 80.20643396 32.29191631 79.75390625 33.56835938 C79.06220862 35.55961753 78.37826158 37.55276662 77.70849609 39.55151367 C74.44778765 49.20325852 71.18384218 55.6371628 62.05078125 60.66796875 C53.85591023 62.63420994 45.11770433 62.06446766 37.625 58.25 C29.02391791 52.97206326 26.69438048 41.15343044 23.625 32.11914062 C21.20509518 25.0495545 21.20509518 25.0495545 16.625 19.25 C14.08343047 18.03324341 14.08343047 18.03324341 11.375 17.4375 C10.48296875 17.20417969 9.5909375 16.97085937 8.671875 16.73046875 C7.65867187 16.49263672 7.65867187 16.49263672 6.625 16.25 C6.49609375 17.01054687 6.3671875 17.77109375 6.234375 18.5546875 C5.21870593 23.04706993 2.93988534 26.19078681 -0.625 29.0625 C-6.8900353 31.76785615 -12.07049369 31.74801193 -18.375 29.25 C-22.59051203 26.56740144 -24.68717874 23.95813298 -26.375 19.25 C-27.23789767 13.57802627 -26.45853322 8.97893148 -23.6484375 3.9765625 C-17.81842037 -3.92793925 -8.09285072 -4.19629297 0 0 Z " fill="#933D8D" transform="translate(60.375,8.75)"/>
<path d="M0 0 C7.29620146 6.367594 9.70675918 16.36707455 12.75390625 25.20703125 C14.82692751 31.00421702 16.59453139 35.63880827 21.1484375 39.875 C23.53313011 40.98557522 23.53313011 40.98557522 25.9609375 41.25 C26.75113281 41.38148438 27.54132813 41.51296875 28.35546875 41.6484375 C28.94714844 41.72320312 29.53882813 41.79796875 30.1484375 41.875 C30.24125 40.575625 30.24125 40.575625 30.3359375 39.25 C31.32055264 35.16006019 33.04575417 32.61503203 36.1484375 29.875 C41.85606409 26.40565835 46.81145234 26.33781053 53.1484375 27.875 C57.55887811 30.12031522 60.24920632 32.27686136 62.1484375 36.875 C63.54938696 43.26072313 63.64644726 48.12020974 60.1484375 53.875 C55.83818097 58.28842756 52.52894945 60.04262472 46.3984375 60.1875 C41.12116546 60.13068726 38.09918808 59.62821305 34.1484375 55.875 C33.6121875 54.84375 33.0759375 53.8125 32.5234375 52.75 C29.1861796 48.71016149 26.14919715 49.04412076 21.125 48.40234375 C16.71442742 47.6209431 14.15558773 46.14254592 11.1484375 42.875 C6.60550732 35.33203827 3.95022148 26.98369201 1.27539062 18.64648438 C-0.76626293 12.6865058 -2.40968391 9.2201345 -7.8515625 5.875 C-13.29331695 4.24404189 -19.79337374 4.05700513 -25.01293945 6.53588867 C-31.69371621 11.40165159 -34.13586879 23.75477801 -36.72460938 31.28320312 C-39.3320024 38.47328692 -42.44663416 43.88343814 -49.1640625 47.8125 C-53.53375197 49.07156307 -57.3443366 49.15095261 -61.8515625 48.875 C-62.0784375 49.7825 -62.3053125 50.69 -62.5390625 51.625 C-64.05257214 55.37273815 -65.51414379 56.67718768 -68.8515625 58.875 C-72.01165783 59.92836511 -74.4068761 60.07532888 -77.7265625 60.125 C-79.26957031 60.16367188 -79.26957031 60.16367188 -80.84375 60.203125 C-85.53030815 59.69186411 -88.03874531 57.80070847 -91.1015625 54.3125 C-94.05547672 48.5101685 -94.57009944 43.31004184 -92.7265625 37.0625 C-90.15201978 32.68577738 -87.74969091 29.50770947 -82.8515625 27.875 C-77.33524543 27.38943674 -72.46037349 27.15678081 -67.3515625 29.4375 C-64.28045754 32.43182734 -62.68621222 34.99401021 -60.8515625 38.875 C-60.8515625 39.865 -60.8515625 40.855 -60.8515625 41.875 C-59.6346875 41.6275 -58.4178125 41.38 -57.1640625 41.125 C-56.47957031 40.98578125 -55.79507813 40.8465625 -55.08984375 40.703125 C-50.86337373 39.13940485 -48.35389009 36.88800547 -46.35351562 32.85400391 C-45.74926758 31.12029541 -45.74926758 31.12029541 -45.1328125 29.3515625 C-44.90758911 28.72776703 -44.68236572 28.10397156 -44.45031738 27.46127319 C-43.73575686 25.47913879 -43.04171 23.49075436 -42.3515625 21.5 C-41.66036313 19.51685275 -40.96439739 17.53607917 -40.25280762 15.56015015 C-39.60586309 13.76282809 -38.97719184 11.95895922 -38.34960938 10.15478516 C-35.60114942 4.13737787 -31.82989653 0.02460796 -25.63671875 -2.42578125 C-16.82136576 -4.63889231 -8.10814978 -4.09674936 0 0 Z " fill="#933D8E" transform="translate(127.8515625,134.125)"/>
<path d="M0 0 C4.84268109 2.45278653 6.73622492 5.61368334 8.9296875 10.3515625 C8.9296875 11.0115625 8.9296875 11.6715625 8.9296875 12.3515625 C44.8996875 12.3515625 80.8696875 12.3515625 117.9296875 12.3515625 C118.2596875 10.7015625 118.5896875 9.0515625 118.9296875 7.3515625 C121.79900339 3.28669832 123.99424167 0.44832824 128.9296875 -0.6484375 C135.81092148 -1.39869129 140.3689941 -0.87456449 145.9296875 3.3515625 C149.45226518 7.52303607 150.83705142 10.88603378 150.9296875 16.3515625 C149.76974993 22.31548931 147.80532094 26.52070766 142.9296875 30.3515625 C138.57156805 32.89379884 133.84397347 33.02590706 128.9296875 32.3515625 C123.63766886 30.52887115 120.53720298 27.25369161 117.9296875 22.3515625 C117.9296875 21.3615625 117.9296875 20.3715625 117.9296875 19.3515625 C81.9596875 19.3515625 45.9896875 19.3515625 8.9296875 19.3515625 C8.2696875 21.3315625 7.6096875 23.3115625 6.9296875 25.3515625 C5.30859375 27.21484375 5.30859375 27.21484375 3.4921875 28.6640625 C2.89535156 29.15519531 2.29851563 29.64632812 1.68359375 30.15234375 C-2.51697811 33.02444968 -7.18704089 32.81145966 -12.0703125 32.3515625 C-17.7120993 30.32903516 -20.56277311 27.21588735 -23.3203125 21.9765625 C-24.68606597 17.19642537 -24.41325597 13.45660256 -22.9453125 8.7265625 C-18.15202903 0.09865225 -9.44871877 -2.95941003 0 0 Z " fill="#933D8D" transform="translate(49.0703125,84.6484375)"/>
<path d="M0 0 C1.98 0 3.96 0 6 0 C6 6.6 6 13.2 6 20 C4.02 20 2.04 20 0 20 C0 13.4 0 6.8 0 0 Z " fill="#FAFAFA" transform="translate(210,170)"/>
<path d="M0 0 C1.98 0 3.96 0 6 0 C6 6.6 6 13.2 6 20 C4.02 20 2.04 20 0 20 C0 13.4 0 6.8 0 0 Z " fill="#FAFAFA" transform="translate(210,9)"/>
</svg>
