<?xml version="1.0" encoding="UTF-8"?>
<svg version="1.1" xmlns="http://www.w3.org/2000/svg" width="801" height="202">
<path d="M0 0 C192.06 0 384.12 0 582 0 C582 6.6 582 13.2 582 20 C389.94 20 197.88 20 0 20 C0 13.4 0 6.8 0 0 Z " fill="#FBFBFB" transform="translate(201,173)"/>
<path d="M0 0 C192.06 0 384.12 0 582 0 C582 6.6 582 13.2 582 20 C389.94 20 197.88 20 0 20 C0 13.4 0 6.8 0 0 Z " fill="#FBFBFB" transform="translate(201,12)"/>
<path d="M0 0 C9.28125 -0.0825 18.5625 -0.165 28.125 -0.25 C31.02555176 -0.28641602 33.92610352 -0.32283203 36.91455078 -0.36035156 C39.25813053 -0.37205286 41.60171853 -0.38224125 43.9453125 -0.390625 C45.71636353 -0.4213208 45.71636353 -0.4213208 47.52319336 -0.45263672 C62.06921484 -0.45861658 74.28254832 4.01743512 86.1875 12.1875 C97.46205723 23.46205723 103.06201716 36.74045034 103.25 52.625 C103.22804678 66.2924466 99.28561277 80.18788943 89.7578125 90.4140625 C76.38173793 102.48225422 61.91241768 106.52199909 44.140625 106.29296875 C42.44848877 106.28843689 42.44848877 106.28843689 40.72216797 106.28381348 C36.56468369 106.26828377 32.40733127 106.22640182 28.25 106.1875 C18.9275 106.125625 9.605 106.06375 0 106 C0 71.02 0 36.04 0 0 Z M17 15 C17 40.08 17 65.16 17 91 C46.83728773 93.04625146 46.83728773 93.04625146 72 83 C72.86625 82.443125 73.7325 81.88625 74.625 81.3125 C82.33334793 73.80700333 86.04974138 63.59801001 86.375 53 C86.07852594 43.33988676 83.07539169 34.58804023 77 27 C59.96227284 11.00990007 40.23934641 15 17 15 Z " fill="#FBFBFB" transform="translate(381,53)"/>
<path d="M0 0 C2.80576246 2.01452703 5.00151088 3.75480843 7.10546875 6.51171875 C6.78732616 10.16278368 4.9592147 12.12581408 2.54296875 14.76171875 C1.90230469 15.468125 1.26164062 16.17453125 0.6015625 16.90234375 C0.10785156 17.4334375 -0.38585937 17.96453125 -0.89453125 18.51171875 C-4.26533719 17.88777724 -6.43097037 16.61891497 -9.20703125 14.63671875 C-18.95088997 7.96481549 -28.17573736 6.66076899 -39.89453125 7.51171875 C-50.53839925 9.51045414 -59.98664991 13.9288237 -66.33203125 22.94921875 C-72.4063838 33.00450291 -74.40171236 43.60913201 -72.43359375 55.234375 C-69.62085152 65.67461233 -64.22672009 73.91834007 -54.89453125 79.51171875 C-45.38645734 84.67149477 -33.92633603 85.17054496 -23.5 82.7109375 C-19.87219043 81.45310259 -16.80050343 80.19568693 -13.7265625 77.875 C-11.89453125 76.51171875 -11.89453125 76.51171875 -9.89453125 76.51171875 C-9.89453125 65.95171875 -9.89453125 55.39171875 -9.89453125 44.51171875 C-4.28453125 44.51171875 1.32546875 44.51171875 7.10546875 44.51171875 C7.10546875 62.33171875 7.10546875 80.15171875 7.10546875 98.51171875 C1.82546875 98.51171875 -3.45453125 98.51171875 -8.89453125 98.51171875 C-9.22453125 97.19171875 -9.55453125 95.87171875 -9.89453125 94.51171875 C-10.55839844 94.78886719 -11.22226562 95.06601563 -11.90625 95.3515625 C-13.23076172 95.89490234 -13.23076172 95.89490234 -14.58203125 96.44921875 C-15.88720703 96.98869141 -15.88720703 96.98869141 -17.21875 97.5390625 C-30.27862298 102.28637399 -48.33858652 101.1821454 -60.89453125 95.51171875 C-62.35052734 94.85816406 -62.35052734 94.85816406 -63.8359375 94.19140625 C-77.13298027 87.57002169 -84.26193054 76.8812431 -89.1328125 63.15234375 C-93.20483337 49.03600473 -91.81555587 32.80993038 -85.50390625 19.6015625 C-84.08444221 17.12497129 -82.57330434 14.81897724 -80.89453125 12.51171875 C-80.44335938 11.87878906 -79.9921875 11.24585937 -79.52734375 10.59375 C-61.54075968 -12.42298047 -23.48826466 -15.21181251 0 0 Z " fill="#FBFBFB" transform="translate(304.89453125,60.48828125)"/>
<path d="M0 0 C0.87624023 0.00757324 1.75248047 0.01514648 2.65527344 0.02294922 C14.22640368 0.31683962 22.96593799 4.08912256 31.03125 12.40234375 C37.05362689 19.45822176 40.24051036 27.34738877 40.16430664 36.64282227 C40.1557943 37.99054466 40.1557943 37.99054466 40.14710999 39.36549377 C40.13981369 40.04925583 40.1325174 40.73301788 40.125 41.4375 C32.78054791 42.87723587 25.43512159 44.31190569 18.08842945 45.74016571 C14.67687158 46.40356584 11.2656685 47.0686876 7.85522461 47.73779297 C3.9318241 48.50745758 0.0069846 49.26954347 -3.91796875 50.03125 C-5.13896774 50.27186157 -6.35996674 50.51247314 -7.6179657 50.76037598 C-9.32917351 51.09071838 -9.32917351 51.09071838 -11.07495117 51.42773438 C-12.07644699 51.62314819 -13.07794281 51.81856201 -14.10978699 52.01989746 C-16.74846495 52.41839067 -19.21163369 52.51613683 -21.875 52.4375 C-17.33019115 60.07277887 -12.16022991 64.74917881 -3.4140625 66.96875 C4.94569952 68.51209068 13.25821563 67.5374129 20.53515625 62.90234375 C22.45575372 61.46951707 24.31145911 60.00281881 26.125 58.4375 C27.25394876 59.37024109 28.37800876 60.30890122 29.5 61.25 C30.12648438 61.77207031 30.75296875 62.29414063 31.3984375 62.83203125 C33.125 64.4375 33.125 64.4375 35.125 67.4375 C34.81317356 70.76364867 33.62346824 72.3091752 31.125 74.4375 C19.75074827 83.70106584 6.08638187 83.38953031 -7.875 82.4375 C-18.49308957 80.54527426 -26.413932 74.93894247 -33.26953125 66.78125 C-40.02104681 56.92502291 -42.39417906 45.10575697 -40.34375 33.40625 C-37.68726491 21.97181417 -33.05236546 12.31322722 -23 5.625 C-15.54622945 1.46638176 -8.5006724 -0.10334665 0 0 Z M-19.375 23.4375 C-23.09229516 29.05009213 -24.20105545 33.8103786 -24.875 40.4375 C-14.86644455 39.70188153 -5.09782967 37.72979319 4.75 35.875 C6.53508535 35.5419375 8.32024108 35.20925196 10.10546875 34.87695312 C14.4461367 34.06814915 18.78581831 33.25423848 23.125 32.4375 C22.17169665 25.90804029 20.04363687 22.79109573 15.125 18.4375 C4.02118594 10.83680128 -11.05682092 12.82880784 -19.375 23.4375 Z " fill="#FBFBFB" transform="translate(536.875,77.5625)"/>
<path d="M0 0 C9.75656536 7.01559048 15.36517819 15.64745484 17.5234375 27.4921875 C18.91868025 40.87203901 16.66387183 52.55864703 8.5234375 63.4921875 C1.20594985 71.41567827 -8.24567695 76.31473853 -19.11328125 76.828125 C-32.09228725 77.0618314 -43.16031948 76.24062584 -53.4453125 67.46484375 C-62.20146377 58.96127377 -66.51445319 50.37620767 -66.94702148 38.14086914 C-67.0851804 25.75338054 -65.0630275 15.86111214 -56.4765625 6.4921875 C-42.27339153 -7.91149883 -17.24432979 -10.49891372 0 0 Z M-45.4765625 18.4921875 C-49.72912227 25.07996795 -51.31859191 31.70045058 -50.4765625 39.4921875 C-48.55131164 47.33620959 -45.46409751 54.34368567 -38.453125 58.76953125 C-31.09951694 62.61035628 -23.97570038 63.70588791 -15.9140625 61.3671875 C-9.22265272 58.86798626 -5.06216725 55.03377605 -1.6015625 48.8046875 C2.00798742 40.83260208 2.49611456 33.12344373 -0.3984375 24.84765625 C-3.29210019 18.52563234 -7.28687189 13.77651313 -13.4765625 10.4921875 C-25.63671461 5.98842746 -36.9468848 8.76603918 -45.4765625 18.4921875 Z " fill="#FBFBFB" transform="translate(655.4765625,83.5078125)"/>
<path d="M0 0 C0.85142578 -0.01611328 1.70285156 -0.03222656 2.58007812 -0.04882812 C12.8259111 -0.0566315 19.59137819 2.76516278 27.015625 9.83203125 C32.31159519 15.88048642 34.31885061 22.99283031 34.30102539 30.90722656 C34.30091209 32.58851654 34.30091209 32.58851654 34.30079651 34.30377197 C34.29563522 35.50805847 34.29047394 36.71234497 34.28515625 37.953125 C34.2837413 39.19044373 34.28232635 40.42776245 34.28086853 41.70257568 C34.2762211 44.98394941 34.26724347 48.26527373 34.25616455 51.54663086 C34.2459152 54.89827011 34.24144859 58.24991148 34.23632812 61.6015625 C34.22530024 68.1718968 34.20803617 74.74218881 34.1875 81.3125 C28.9075 81.3125 23.6275 81.3125 18.1875 81.3125 C18.17291748 79.83974609 18.15833496 78.36699219 18.14331055 76.84960938 C18.08514728 71.36271416 18.007915 65.87622159 17.92504883 60.38964844 C17.89188427 58.01927242 17.86382622 55.64881905 17.84106445 53.27832031 C17.80736312 49.86229624 17.75503791 46.4469757 17.69921875 43.03125 C17.69282883 41.97885132 17.6864389 40.92645264 17.67985535 39.84216309 C17.53139649 32.33877852 16.76542379 26.35312806 11.75 20.4375 C7.19801599 16.66268399 3.13903526 15.40421887 -2.8125 15.3125 C-10.37688481 16.0479263 -15.80197117 18.05109377 -21.0625 23.75 C-26.15292514 31.20383681 -25.96772428 39.67952931 -26.12890625 48.40234375 C-26.14968735 49.34686905 -26.17046844 50.29139435 -26.19187927 51.26454163 C-26.25687354 54.25962573 -26.316025 57.25479193 -26.375 60.25 C-26.41823297 62.28972178 -26.46184873 64.32943548 -26.50585938 66.36914062 C-26.61250305 71.35017788 -26.7139094 76.3312971 -26.8125 81.3125 C-32.0925 81.3125 -37.3725 81.3125 -42.8125 81.3125 C-42.8125 54.9125 -42.8125 28.5125 -42.8125 1.3125 C-37.5325 1.3125 -32.2525 1.3125 -26.8125 1.3125 C-26.4825 3.6225 -26.1525 5.9325 -25.8125 8.3125 C-25.16023437 7.90257813 -24.50796875 7.49265625 -23.8359375 7.0703125 C-22.96195313 6.53148438 -22.08796875 5.99265625 -21.1875 5.4375 C-20.32898438 4.90382813 -19.47046875 4.37015625 -18.5859375 3.8203125 C-12.34665406 0.42825136 -6.9587506 -0.02598488 0 0 Z " fill="#FBFBFB" transform="translate(734.8125,77.6875)"/>
<path d="M0 0 C3.76778512 2.08414886 5.77401087 4.50535462 7.75 8.375 C7.75 9.365 7.75 10.355 7.75 11.375 C9.06605225 11.35143433 9.06605225 11.35143433 10.40869141 11.32739258 C13.68511952 11.27605624 16.96111598 11.23855003 20.23779297 11.21020508 C21.65192437 11.19518175 23.06600968 11.17475695 24.47998047 11.14868164 C26.52062397 11.11201046 28.56064792 11.09520964 30.6015625 11.08203125 C31.82697754 11.0663208 33.05239258 11.05061035 34.31494141 11.03442383 C39.48866915 11.54738404 42.69294521 13.4140411 46.5 16.875 C49.31603048 20.43068405 49.59907127 24.27492572 50 28.69140625 C51.09531759 32.6105895 52.47087351 33.92341571 55.75 36.375 C59.5824603 37.11695623 63.36051904 37.05182581 67.25390625 37.00390625 C68.36934311 37.00631821 69.48477997 37.00873016 70.63401794 37.01121521 C72.98838868 37.01023704 75.3427825 36.99685088 77.69702148 36.97192383 C81.30336448 36.93758698 84.90726127 36.95127548 88.51367188 36.97070312 C90.80209378 36.96380555 93.09050935 36.95413398 95.37890625 36.94140625 C96.45813858 36.94636612 97.53737091 36.95132599 98.64930725 36.95643616 C99.65392502 36.94059982 100.65854279 36.92476349 101.69360352 36.90844727 C102.57564957 36.90224869 103.45769562 36.89605011 104.36647034 36.8896637 C107.53233513 36.20607427 108.73508991 34.85821709 110.75 32.375 C111.65066294 29.58714672 111.65066294 29.58714672 112.125 26.5625 C113.38290163 20.96347047 115.13066755 16.92997014 119.75 13.375 C123.86594938 11.34231782 127.23847953 11.1408594 131.80078125 11.1796875 C132.45958786 11.1825174 133.11839447 11.18534729 133.79716492 11.18826294 C135.88580062 11.19939076 137.97399556 11.22448052 140.0625 11.25 C141.48501982 11.26003941 142.9075464 11.26916358 144.33007812 11.27734375 C147.80352681 11.29930553 151.27672033 11.33378354 154.75 11.375 C154.88148438 10.60414062 155.01296875 9.83328125 155.1484375 9.0390625 C155.94111252 5.52864455 157.20774577 3.91725423 159.75 1.375 C164.64025852 -1.35225956 169.19409535 -2.55627545 174.75 -1.625 C179.40696105 -0.19991902 182.15848941 1.65039953 185.25 5.4375 C187.80043314 10.73192593 187.82050709 16.93544173 186.08984375 22.49609375 C184.23493204 26.23000694 181.60715946 28.85680747 177.875 30.71484375 C172.17630118 32.48521158 166.67952271 32.28713801 161.3125 29.75 C158.51797975 27.15995684 156.59383241 24.70808167 154.75 21.375 C154.75 20.385 154.75 19.395 154.75 18.375 C150.35341822 18.45597907 145.9582129 18.56881799 141.5625 18.6875 C140.31662109 18.71005859 139.07074219 18.73261719 137.78710938 18.75585938 C135.9840332 18.8090332 135.9840332 18.8090332 134.14453125 18.86328125 C132.48707886 18.90255737 132.48707886 18.90255737 130.79614258 18.94262695 C127.41443573 19.42263039 125.49528235 20.3773965 122.75 22.375 C120.84553103 25.21696299 120.41254536 27.89858105 119.9375 31.25 C118.9514681 36.40012048 117.63706024 38.83345623 113.75 42.375 C107.59730737 45.78422694 102.09478833 45.81328302 95.15625 45.7734375 C94.05075806 45.77630768 92.94526611 45.77917786 91.80627441 45.78213501 C89.47647589 45.78417018 87.14666006 45.77867874 84.81689453 45.76611328 C81.26165362 45.75005264 77.70754952 45.76598144 74.15234375 45.78515625 C71.88281 45.78317372 69.61327696 45.77932985 67.34375 45.7734375 C65.75753845 45.78254654 65.75753845 45.78254654 64.13928223 45.7918396 C56.76280122 45.72193975 51.68789995 44.97904768 46 39.9375 C43.09629671 36.18254818 42.46619764 31.76073339 41.62109375 27.1796875 C40.60866355 23.91993464 39.3481058 22.53925703 36.75 20.375 C34.01321275 19.00660637 31.70735576 19.15865182 28.6484375 19.05859375 C27.43671875 19.01669922 26.225 18.97480469 24.9765625 18.93164062 C23.70554688 18.89232422 22.43453125 18.85300781 21.125 18.8125 C19.84625 18.76931641 18.5675 18.72613281 17.25 18.68164062 C14.08344652 18.57530114 10.91681247 18.47327167 7.75 18.375 C7.61980469 19.14585938 7.48960938 19.91671875 7.35546875 20.7109375 C6.33540237 25.19922956 3.87733085 27.57761964 0.1875 30.1875 C-4.68947031 31.87227156 -9.14369052 32.05989993 -14.25 31.375 C-19.07833008 29.00472887 -22.96159336 25.5960166 -25 20.5 C-25.79202834 13.76775912 -25.20283334 8.93556066 -21.25 3.375 C-14.70882367 -1.83124239 -7.74512181 -3.48892403 0 0 Z " fill="#943D8E" transform="translate(32.25,45.625)"/>
<path d="M0 0 C1.6546804 -0.00786278 1.6546804 -0.00786278 3.3427887 -0.0158844 C5.66837729 -0.02228843 7.99399834 -0.02098867 10.31958008 -0.01245117 C13.86403467 -0.00394195 17.40687624 -0.03272638 20.95117188 -0.06445312 C23.21744744 -0.06606542 25.48372583 -0.06548707 27.75 -0.0625 C28.80231308 -0.07373398 29.85462616 -0.08496796 30.93882751 -0.09654236 C38.54156703 -0.0250685 43.95405994 1.41751045 49.75390625 6.43359375 C51.9481234 10.33442423 52.74612425 14.22639732 53.6328125 18.59375 C54.47297804 21.54447633 55.34474604 23.21390213 57.44140625 25.43359375 C60.6800626 26.51314587 63.23296463 26.63801116 66.640625 26.75 C68.45336914 26.8128418 68.45336914 26.8128418 70.30273438 26.87695312 C71.56537109 26.91626953 72.82800781 26.95558594 74.12890625 26.99609375 C76.04026367 27.06086914 76.04026367 27.06086914 77.99023438 27.12695312 C81.14051477 27.23314235 84.29087464 27.33518908 87.44140625 27.43359375 C87.6417749 26.00623901 87.6417749 26.00623901 87.84619141 24.55004883 C88.50832607 21.08321166 89.10399067 20.24410257 91.81640625 18.12109375 C92.72519531 17.38439453 92.72519531 17.38439453 93.65234375 16.6328125 C98.11371882 13.64232746 103.28476539 13.76231506 108.44140625 14.43359375 C112.76257722 16.1156603 115.64115406 18.38326275 118.44140625 22.05859375 C120.10470537 27.67222828 120.62166522 33.23378055 118.5625 38.81640625 C116.53605594 42.44126658 114.76323377 44.23554604 111.19140625 46.43359375 C105.44601978 47.96569681 100.76791854 48.26762646 95.12890625 46.24609375 C91.33785681 43.68933948 88.8677943 41.30970118 87.8359375 36.76953125 C87.70574219 35.99867188 87.57554687 35.2278125 87.44140625 34.43359375 C86.07991455 34.46501465 86.07991455 34.46501465 84.69091797 34.49707031 C81.30262983 34.56550308 77.91508275 34.6155167 74.52636719 34.65332031 C73.06368373 34.67335707 71.60107959 34.70059479 70.13867188 34.73535156 C68.02844615 34.784226 65.91928489 34.80664034 63.80859375 34.82421875 C62.54128418 34.84516602 61.27397461 34.86611328 59.96826172 34.88769531 C54.89481916 34.23446237 51.95105557 31.81384456 48.25390625 28.43359375 C45.90386978 24.54387822 45.19830408 20.71135675 44.34765625 16.2734375 C43.27762129 12.92035381 42.14540342 11.65464754 39.44140625 9.43359375 C37.02882349 8.82776078 37.02882349 8.82776078 34.38500977 8.90014648 C32.87808311 8.87639198 32.87808311 8.87639198 31.3407135 8.85215759 C30.26148117 8.85711746 29.18224884 8.86207733 28.0703125 8.8671875 C26.95583237 8.86098892 25.84135223 8.85479034 24.69309998 8.84840393 C22.33699416 8.84130235 19.98083819 8.84448558 17.62475586 8.85717773 C14.02038104 8.87103043 10.41860812 8.83698948 6.81445312 8.79882812 C4.52473895 8.79787682 2.23502152 8.79973636 -0.0546875 8.8046875 C-1.67049965 8.78480019 -1.67049965 8.78480019 -3.31895447 8.76451111 C-9.47043522 8.81786867 -9.47043522 8.81786867 -14.73291016 11.80737305 C-16.73029808 14.68058806 -17.21402866 16.35453353 -17.49609375 19.80859375 C-18.29103461 25.36568036 -20.07793881 28.96437333 -24.55859375 32.43359375 C-28.67354086 34.46789234 -32.04747796 34.66773091 -36.609375 34.62890625 C-37.26818161 34.62607635 -37.92698822 34.62324646 -38.60575867 34.62033081 C-40.69439437 34.60920299 -42.78258931 34.58411323 -44.87109375 34.55859375 C-46.29361357 34.54855434 -47.71614015 34.53943017 -49.13867188 34.53125 C-52.61212056 34.50928822 -56.08531408 34.47481021 -59.55859375 34.43359375 C-59.69007812 35.20445312 -59.8215625 35.9753125 -59.95703125 36.76953125 C-60.74970627 40.2799492 -62.01633952 41.89133952 -64.55859375 44.43359375 C-69.44354529 47.15789365 -74.00724228 48.37468 -79.55859375 47.43359375 C-83.98812638 46.00549307 -86.90157275 44.17484821 -89.99609375 40.68359375 C-92.48931655 35.49769032 -92.90907852 31.46640543 -91.93359375 25.80859375 C-90.02112413 21.11435014 -87.76500708 17.82048213 -83.37109375 15.05859375 C-77.80447796 13.82156802 -72.58524785 13.72051175 -67.18359375 15.62109375 C-63.44284831 18.20398941 -60.97899985 20.58380693 -59.953125 25.09765625 C-59.75783203 26.25394531 -59.75783203 26.25394531 -59.55859375 27.43359375 C-55.14141319 27.32374474 -50.72508665 27.19310622 -46.30859375 27.05859375 C-44.42720703 27.0121875 -44.42720703 27.0121875 -42.5078125 26.96484375 C-41.30253906 26.92617187 -40.09726562 26.8875 -38.85546875 26.84765625 C-37.19016113 26.8005249 -37.19016113 26.8005249 -35.49121094 26.75244141 C-32.61282566 26.43949009 -30.9455555 26.03499871 -28.55859375 24.43359375 C-26.46589185 21.29454091 -25.99445219 19.27106281 -25.24609375 15.62109375 C-23.92234796 10.16805138 -22.76614612 7.16301517 -18.55859375 3.43359375 C-12.41307711 0.04722637 -6.92549026 -0.01928295 0 0 Z " fill="#933D8E" transform="translate(99.55859375,115.56640625)"/>
<path d="M0 0 C7.31706359 6.38580095 9.74501602 16.44315622 12.84179688 25.29492188 C15.78778924 33.83065921 15.78778924 33.83065921 22.0234375 40.125 C24.69917708 41.06937868 27.34211024 41.49231901 30.1484375 41.875 C30.24125 40.575625 30.24125 40.575625 30.3359375 39.25 C31.32055264 35.16006019 33.04575417 32.61503203 36.1484375 29.875 C41.85606409 26.40565835 46.81145234 26.33781053 53.1484375 27.875 C58.25913312 30.47680868 60.87068892 33.39023116 62.8359375 38.75 C63.70100164 44.63243617 63.43937437 48.82889679 60.1484375 53.875 C55.75036333 58.22616137 52.5731295 60.04158066 46.3984375 60.1875 C41.12116546 60.13068726 38.09918808 59.62821305 34.1484375 55.875 C33.6121875 54.84375 33.0759375 53.8125 32.5234375 52.75 C29.1861796 48.71016149 26.14919715 49.04412076 21.125 48.40234375 C16.71442742 47.6209431 14.15558773 46.14254592 11.1484375 42.875 C6.60550732 35.33203827 3.95022148 26.98369201 1.27539062 18.64648438 C-0.76646233 12.68592374 -2.42175854 9.23564593 -7.8515625 5.875 C-13.57032052 4.11606206 -19.3556741 4.56672687 -24.8515625 6.875 C-28.45940658 9.87345193 -29.85104562 12.77048625 -31.4375 17.14453125 C-31.89382812 18.36333984 -32.35015625 19.58214844 -32.8203125 20.83789062 C-33.52455781 22.75818175 -34.22389637 24.68012113 -34.91894531 26.60375977 C-40.86829255 42.9602572 -40.86829255 42.9602572 -49.1640625 47.8125 C-53.53375197 49.07156307 -57.3443366 49.15095261 -61.8515625 48.875 C-61.98046875 49.48085937 -62.109375 50.08671875 -62.2421875 50.7109375 C-63.11248298 53.80160222 -64.65600189 55.5574638 -66.8515625 57.875 C-70.5849636 59.73526365 -73.7014708 60.17161955 -77.8515625 60.1875 C-78.8621875 60.20425781 -79.8728125 60.22101563 -80.9140625 60.23828125 C-85.54050104 59.66612861 -88.07068799 57.76432931 -91.1015625 54.3125 C-94.05547672 48.5101685 -94.57009944 43.31004184 -92.7265625 37.0625 C-90.15201978 32.68577738 -87.74969091 29.50770947 -82.8515625 27.875 C-77.33524543 27.38943674 -72.46037349 27.15678081 -67.3515625 29.4375 C-64.28045754 32.43182734 -62.68621222 34.99401021 -60.8515625 38.875 C-60.8515625 39.865 -60.8515625 40.855 -60.8515625 41.875 C-59.6346875 41.6275 -58.4178125 41.38 -57.1640625 41.125 C-56.47957031 40.98578125 -55.79507813 40.8465625 -55.08984375 40.703125 C-50.86337373 39.13940485 -48.35389009 36.88800547 -46.35351562 32.85400391 C-45.74926758 31.12029541 -45.74926758 31.12029541 -45.1328125 29.3515625 C-44.90758911 28.72776703 -44.68236572 28.10397156 -44.45031738 27.46127319 C-43.73575686 25.47913879 -43.04171 23.49075436 -42.3515625 21.5 C-41.66036313 19.51685275 -40.96439739 17.53607917 -40.25280762 15.56015015 C-39.60586309 13.76282809 -38.97719184 11.95895922 -38.34960938 10.15478516 C-35.60114942 4.13737787 -31.82989653 0.02460796 -25.63671875 -2.42578125 C-16.82136576 -4.63889231 -8.10814978 -4.09674936 0 0 Z " fill="#943D8E" transform="translate(128.8515625,137.125)"/>
<path d="M0 0 C2.64314328 2.26555138 4.14096809 4.11704374 5.625 7.25 C5.625 7.91 5.625 8.57 5.625 9.25 C6.181875 9.20359375 6.73875 9.1571875 7.3125 9.109375 C13.22326939 8.82981158 17.83821319 9.61126368 22.625 13.25 C26.98055551 17.76135298 29.08328676 22.14247471 31.1875 28 C31.78482528 29.60038399 32.38247937 31.20064529 32.98046875 32.80078125 C33.26196777 33.56600098 33.5434668 34.3312207 33.83349609 35.11962891 C34.84016623 37.82913032 35.91224532 40.50964574 37 43.1875 C37.9523108 45.53515314 38.8228606 47.8435818 39.625 50.25 C45.22677043 53.1018104 51.04103563 53.55877565 57.203125 53.0625 C60.895465 51.82377948 63.28027887 50.31692845 65.625 47.25 C67.83080766 42.54105721 69.51071847 37.66497246 71.1875 32.75 C71.87075841 30.76282254 72.55958787 28.77847651 73.26609802 26.79943848 C73.90622445 25.00488019 74.52515707 23.20280317 75.14282227 21.40039062 C76.803149 17.87134167 78.73413273 15.83535418 81.625 13.25 C82.5840625 12.37794922 82.5840625 12.37794922 83.5625 11.48828125 C86.25449416 9.87206506 88.51250172 9.72929671 91.625 9.4375 C96.54983494 8.83549061 96.54983494 8.83549061 100 5.375 C100.53625 4.34375 101.0725 3.3125 101.625 2.25 C105.44430172 -1.37833663 108.50779006 -2.06000458 113.625 -2.25 C120.3162538 -2.00156236 123.42634327 -0.0643755 128 4.75 C130.39803575 9.91500009 130.37881535 14.6502288 129.625 20.25 C127.35712562 25.1346525 124.5096525 27.98212562 119.625 30.25 C114.0252288 31.00381535 109.29000009 31.02303575 104.125 28.625 C101.37306736 26.01066399 99.43403586 23.5897585 97.625 20.25 C97.625 18.93 97.625 17.61 97.625 16.25 C96.03612359 16.62296145 94.45394514 17.02451001 92.875 17.4375 C91.99328125 17.65792969 91.1115625 17.87835937 90.203125 18.10546875 C85.97907275 19.98069194 84.11221571 23.17367512 82.24047852 27.30859375 C81.62837524 28.98115234 81.62837524 28.98115234 81.00390625 30.6875 C80.54306641 31.91210938 80.08222656 33.13671875 79.60742188 34.3984375 C78.89445893 36.32552359 78.18599593 38.2541254 77.48217773 40.18457031 C76.79275228 42.0648651 76.08599106 43.93877456 75.37890625 45.8125 C74.76511108 47.48505859 74.76511108 47.48505859 74.13891602 49.19140625 C71.52555413 54.47123172 67.40958297 58.05845368 62.12890625 60.5234375 C53.98609278 62.88625077 45.1192965 62.06527822 37.625 58.25 C29.02391791 52.97206326 26.69438048 41.15343044 23.625 32.11914062 C21.20509518 25.0495545 21.20509518 25.0495545 16.625 19.25 C14.08343047 18.03324341 14.08343047 18.03324341 11.375 17.4375 C10.48296875 17.20417969 9.5909375 16.97085937 8.671875 16.73046875 C7.65867187 16.49263672 7.65867187 16.49263672 6.625 16.25 C6.5425 17.136875 6.46 18.02375 6.375 18.9375 C5.30688349 23.65501457 3.14515352 26.06765837 -0.625 29 C-5.61746275 31.26930125 -9.77639852 31.54804434 -15.0625 30.5625 C-19.72387064 28.71554182 -22.3811207 26.7236831 -25.1875 22.5625 C-27.26843 16.75780053 -27.27571882 11.61244146 -24.75 5.9375 C-22.35843702 1.68017867 -19.15910018 -0.86363341 -14.4609375 -2.359375 C-9.30174336 -3.32551622 -4.60760681 -2.38912946 0 0 Z " fill="#943D8E" transform="translate(61.375,11.75)"/>
<path d="M0 0 C4.84268109 2.45278653 6.73622492 5.61368334 8.9296875 10.3515625 C8.9296875 11.0115625 8.9296875 11.6715625 8.9296875 12.3515625 C44.8996875 12.3515625 80.8696875 12.3515625 117.9296875 12.3515625 C118.2596875 10.7015625 118.5896875 9.0515625 118.9296875 7.3515625 C121.79900339 3.28669832 123.99424167 0.44832824 128.9296875 -0.6484375 C135.81092148 -1.39869129 140.3689941 -0.87456449 145.9296875 3.3515625 C149.6949908 7.71138737 151.02850125 11.68624058 150.9296875 17.3515625 C149.75775974 23.63735687 147.58412786 27.51873463 142.3046875 31.1640625 C137.17849658 32.96772227 132.09606919 33.41503415 126.87109375 31.66015625 C122.57061913 29.44980478 120.16955811 26.56251925 117.9296875 22.3515625 C117.9296875 21.3615625 117.9296875 20.3715625 117.9296875 19.3515625 C81.9596875 19.3515625 45.9896875 19.3515625 8.9296875 19.3515625 C8.2696875 21.3315625 7.6096875 23.3115625 6.9296875 25.3515625 C3.37777683 29.57545627 0.37584588 31.99352007 -5.17578125 32.5703125 C-10.22763814 32.77340222 -13.77121559 32.25095344 -18.0703125 29.3515625 C-21.97436866 25.23061433 -23.85945468 21.62882699 -24.3828125 15.9765625 C-23.89897222 10.36401522 -22.35882981 6.18901032 -18.0703125 2.4765625 C-12.71583744 -1.31619067 -6.2928387 -1.97096458 0 0 Z " fill="#933D8E" transform="translate(50.0703125,87.6484375)"/>
<path d="M0 0 C5.28 0 10.56 0 16 0 C16 26.4 16 52.8 16 80 C10.72 80 5.44 80 0 80 C0 53.6 0 27.2 0 0 Z " fill="#FBFBFB" transform="translate(337,79)"/>
<path d="M0 0 C3.0625 1.4375 3.0625 1.4375 5 4 C5.97727756 7.06562663 6.29948998 9.79434797 6 13 C3.20481928 18.39759036 3.20481928 18.39759036 0 20 C-5.03205028 20.62343986 -8.77853376 20.82262012 -13.0625 17.9375 C-15.39595144 14.39968652 -16 12.2362654 -16 8 C-12.89522742 -0.22764735 -8.08011452 -0.99229477 0 0 Z " fill="#FAFAFA" transform="translate(350,45)"/>
</svg>
